<svg xmlns="http://www.w3.org/2000/svg" viewBox="0 0 2000 146" aria-hidden="true"><path fill="currentColor" d="M1908 121L1895 119L1887 114L1878 119L1864 121Z M73 78L87 95L95 112L97 123L1731 123L1767 121L1772 119L129 119L100 118L97 107L89 93L78 81Z M371 24L380 25L392 31L398 27L412 24Z M73 67L92 47L98 35L100 26L277 25L235 22L96 22L96 29L87 49Z M0 72L20 93L29 86L40 82L51 84L64 91L73 99L82 113L85 134L1779 135L1798 138L1815 145L1828 139L1852 135L1989 135L1999 130L91 129L87 111L80 99L66 85L48 73L69 57L81 44L88 31L91 15L504 15L494 10L356 10L333 6L321 0L307 6L283 10L85 10L83 29L75 43L63 54L50 61L39 62L30 59L21 51Z"/></svg>
